<svg width="46" height="49" viewBox="0 0 46 49" fill="none" xmlns="http://www.w3.org/2000/svg">
<g filter="url(#filter0_d_651_10458)">
<path d="M18 15.5556H17.0002C15.6001 15.5556 14.8995 15.5556 14.3647 15.8341C13.8943 16.0791 13.5122 16.4698 13.2725 16.9506C13 17.4973 13 18.2134 13 19.6447V20.6667M18 15.5556H28M18 15.5556V13M28 15.5556H29.0002C30.4004 15.5556 31.0995 15.5556 31.6342 15.8341C32.1046 16.0791 32.4881 16.4698 32.7278 16.9506C33 17.4968 33 18.212 33 19.6405V20.6667M28 15.5556V13M13 20.6667V31.9114C13 33.3426 13 34.0579 13.2725 34.6045C13.5122 35.0854 13.8943 35.4767 14.3647 35.7217C14.899 36 15.5987 36 16.9961 36H29.0039C30.4013 36 31.1 36 31.6342 35.7217C32.1046 35.4767 32.4881 35.0854 32.7278 34.6045C33 34.0584 33 33.3441 33 31.9157V20.6667M13 20.6667H33M28 30.8889H28.0025L28.0024 30.8914L28 30.8914V30.8889ZM23 30.8889H23.0025L23.0024 30.8914L23 30.8914V30.8889ZM18 30.8889H18.0025L18.0024 30.8914L18 30.8914V30.8889ZM28.0024 25.7778V25.7803L28 25.7803V25.7778H28.0024ZM23 25.7778H23.0025L23.0024 25.7803L23 25.7803V25.7778ZM18 25.7778H18.0025L18.0024 25.7803L18 25.7803V25.7778Z" stroke="#55FF96" stroke-width="2" stroke-linecap="round" stroke-linejoin="round" shape-rendering="crispEdges"/>
</g>
<defs>
<filter id="filter0_d_651_10458" x="0" y="0" width="46" height="49" filterUnits="userSpaceOnUse" color-interpolation-filters="sRGB">
<feFlood flood-opacity="0" result="BackgroundImageFix"/>
<feColorMatrix in="SourceAlpha" type="matrix" values="0 0 0 0 0 0 0 0 0 0 0 0 0 0 0 0 0 0 127 0" result="hardAlpha"/>
<feOffset/>
<feGaussianBlur stdDeviation="6"/>
<feComposite in2="hardAlpha" operator="out"/>
<feColorMatrix type="matrix" values="0 0 0 0 0.258824 0 0 0 0 0.8 0 0 0 0 0.466667 0 0 0 0.66 0"/>
<feBlend mode="normal" in2="BackgroundImageFix" result="effect1_dropShadow_651_10458"/>
<feBlend mode="normal" in="SourceGraphic" in2="effect1_dropShadow_651_10458" result="shape"/>
</filter>
</defs>
</svg>
