<?xml version="1.0" encoding="utf-8"?>
<!-- Generator: Adobe Illustrator 28.0.0, SVG Export Plug-In . SVG Version: 6.00 Build 0)  -->
<svg version="1.1" id="Слой_1" xmlns="http://www.w3.org/2000/svg" xmlns:xlink="http://www.w3.org/1999/xlink" x="0px" y="0px"
	 viewBox="0 0 1000 750.3493042" enable-background="new 0 0 1000 750.3493042" xml:space="preserve">
<path fill="#44C7F4" d="M139.2640839,750.3493042c127.0711517,0,223.1480255-165.4434814,309.2687378-346.06427
	c41.453186-87.5640259,80.1117554-179.3199615,118.7703857-257.1029053C609.7417603,60.9060059,653.2918091,0,706.5673218,0
	c45.1594849,0,87.6549683,36.4774437,129.9487305,93.6190033C924.2027588,212.253952,1000,413.1719971,1000,544.9464111
	c0,110.3865967-56.8234863,205.4028931-173.2650146,205.4028931H139.2640839z"/>
<path fill="#035BA9" d="M448.5328369,404.2850342C361.2487183,228.3165436,321.7312012,99.2081985,244.5272522,99.2081985
	c-47.9739227,0-102.0027924,50.302742-150.9082489,132.7433472C41.2276154,319.4264526,0,442.8695068,0,575.6870117
	c0,104.8897705,51.33284,174.6622925,139.2640839,174.6622925
	C266.3100281,750.3493042,362.4121094,584.9058228,448.5328369,404.2850342z"/>
</svg>
