<svg width="200" height="200" viewBox="0 0 200 200" fill="none" xmlns="http://www.w3.org/2000/svg">
<mask id="mask0_797_1072" style="mask-type:luminance" maskUnits="userSpaceOnUse" x="0" y="0" width="200" height="200">
<path d="M0 40C0 17.9 17.9 0 40 0H160C182.1 0 200 17.9 200 40V160C200 182.1 182.1 200 160 200H40C17.9 200 0 182.1 0 160V40Z" fill="white"/>
</mask>
<g mask="url(#mask0_797_1072)">
<path d="M124 112.8C112 116 101.4 112.1 99.9 106.5C98.4 100.9 105.7 92.1 117.6 88.9C129.6 85.7 140.2 89.6 141.7 95.2C143.3 100.9 136 109.6 124 112.8ZM114.8 78.4C97.4 83 86.1 96.9 89.4 109.2C92.7 121.6 109.5 127.9 126.8 123.2C144.2 118.6 155.5 104.7 152.2 92.4C148.9 80 132.1 73.7 114.8 78.4Z" fill="white"/>
<path d="M29.7 125.2C31.5 131.8 27.6 138.6 21 140.4C14.4 142.2 7.59996 138.3 5.79996 131.7C3.99996 125.1 7.89996 118.3 14.5 116.5C21.1 114.7 27.9 118.6 29.7 125.2ZM11.7 106C-0.700043 109.3 -8.00004 122 -4.70004 134.4C-1.40004 146.8 11.3 154.1 23.7 150.8C36.1 147.5 43.4 134.8 40.1 122.4C36.8 110 24.1 102.7 11.7 106Z" fill="white"/>
<path d="M84.1 122.4L66.3 127.2L81 91.2C81.5 90 80.4 88.8 79.1 89.1L46.5 97.8C43.3 98.7 41.3 102.4 42.9 105.5C44.1 107.8 46.8 108.9 49.3 108.2L63.9 104.3L49.2 140.4C48.7 141.6 49.8 142.8 51 142.5L86.7 132.9C89.2 132.2 91.1 129.9 90.9 127.3C90.7 123.8 87.4 121.5 84.1 122.4Z" fill="white"/>
<path d="M196.6 63.1999L206.3 99.2999C206.4 99.5999 206.4 99.9999 206.2 100.3C205.9 101.1 204.9 101.5 204.1 101.1L169.8 86.1999L174.5 103.7C175.3 106.7 173.5 109.7 170.5 110.4C167.6 111.1 164.8 109.2 164 106.4L154.4 70.3999C154.3 69.9999 154.3 69.6999 154.5 69.3999C154.9 68.5999 155.8 68.2999 156.6 68.5999L190.9 83.4999L186.2 66.0999C185.4 63.1999 187 60.1999 189.8 59.3999C192.7 58.4999 195.8 60.1999 196.6 63.1999Z" fill="white"/>
</g>
</svg>
