<svg width="115" height="64" viewBox="0 0 115 64" fill="none" xmlns="http://www.w3.org/2000/svg">
<path d="M91.9119 18.5187C87.1699 18.5187 82.8823 19.9479 79.2261 22.4023V0H69.1107V41.3149C69.1107 53.8846 79.3372 64 91.8513 64C104.365 64 114.708 53.9452 114.708 41.1988C114.708 28.4523 104.593 18.5137 91.9069 18.5137L91.9119 18.5187ZM46.0014 44.2339L36.7446 20.1196H29.6593L20.3469 44.2339L11.0345 20.1196H0L16.2866 62.5203H23.3719L33.1438 37.2647L42.9714 62.5203H50.0567L66.2877 20.1196H55.3138L46.0014 44.2339ZM91.8564 53.8897C84.9983 53.8897 79.2261 48.4053 79.2261 41.2594C79.2261 34.1135 84.6549 28.6897 91.9119 28.6897C99.1689 28.6897 104.598 34.3458 104.598 41.2594C104.598 48.173 98.8255 53.8897 91.8564 53.8897Z" fill="white"/>
</svg>
