<svg width="251" height="223" viewBox="0 0 251 223" fill="none" xmlns="http://www.w3.org/2000/svg">
<style><![CDATA[
.grid-line { stroke: rgba(255,255,255,0.06); stroke-width: 1; }
.digit { animation: digit-pulse 2.8s cubic-bezier(0.45, 0, 0.25, 1) infinite; transform-origin: center; transform-box: fill-box; }
@keyframes digit-pulse {
  0%, 100% { opacity: 0.35; }
  36% { opacity: 1; }
  70% { opacity: 0.45; }
}
]]></style>

<rect x="0.5" y="0.5" width="250" height="222" rx="10" stroke="rgba(255,255,255,0.08)"/>
<path class="grid-line" d="M50 0V223M100 0V223M150 0V223M200 0V223"/>
<path class="grid-line" d="M0 44H251M0 88H251M0 132H251M0 176H251"/>

<g fill="#484848" fill-opacity="0.26">
  <circle class="digit" cx="40" cy="24" r="1.2" style="animation-delay:0.1s"/>
  <circle class="digit" cx="56" cy="40" r="1.2" style="animation-delay:0.4s"/>
  <circle class="digit" cx="72" cy="56" r="1.2" style="animation-delay:0.8s"/>
  <circle class="digit" cx="88" cy="72" r="1.2" style="animation-delay:1.1s"/>
  <circle class="digit" cx="104" cy="88" r="1.2" style="animation-delay:1.5s"/>
  <circle class="digit" cx="120" cy="104" r="1.2" style="animation-delay:1.9s"/>
  <circle class="digit" cx="136" cy="120" r="1.2" style="animation-delay:2.2s"/>
  <circle class="digit" cx="152" cy="136" r="1.2" style="animation-delay:2.5s"/>
  <circle class="digit" cx="168" cy="152" r="1.2" style="animation-delay:0.3s"/>
  <circle class="digit" cx="184" cy="168" r="1.2" style="animation-delay:0.7s"/>
</g>

<g fill="#47A4FF">
  <circle class="digit" cx="48" cy="64" r="1.5" style="animation-delay:0.2s"/>
  <circle class="digit" cx="96" cy="48" r="1.5" style="animation-delay:0.9s"/>
  <circle class="digit" cx="128" cy="96" r="1.5" style="animation-delay:1.4s"/>
  <circle class="digit" cx="176" cy="80" r="1.5" style="animation-delay:2.1s"/>
  <circle class="digit" cx="200" cy="128" r="1.5" style="animation-delay:2.6s"/>
</g>
</svg>
