<svg width="143" height="134" viewBox="0 0 143 134" fill="none" xmlns="http://www.w3.org/2000/svg">
<path opacity="0.5" d="M41.2898 123.608L35.7107 133.272C35.3731 133.078 35.0369 132.88 34.7029 132.68L40.4402 123.108C40.7219 123.277 41.005 123.444 41.2898 123.608ZM108.137 132.68C107.804 132.88 107.468 133.078 107.131 133.272L101.551 123.608C101.835 123.444 102.119 123.277 102.401 123.108L108.137 132.68ZM37.1258 120.972C37.6656 121.345 38.2125 121.71 38.7654 122.066L32.7185 131.445C32.0631 131.023 31.415 130.59 30.7752 130.147L37.1258 120.972ZM112.066 130.147C111.426 130.59 110.778 131.023 110.123 131.445L104.076 122.066C104.629 121.71 105.175 121.345 105.715 120.972L112.066 130.147ZM33.9588 118.622C34.4732 119.03 34.9949 119.43 35.5232 119.822L28.8748 128.786C28.2486 128.322 27.6309 127.847 27.0213 127.363L33.9588 118.622ZM115.82 127.363C115.21 127.847 114.592 128.322 113.966 128.786L107.318 119.822C107.846 119.43 108.368 119.03 108.883 118.622L115.82 127.363ZM30.9519 116.071C31.4387 116.512 31.933 116.946 32.4344 117.371L25.2146 125.881C24.6204 125.377 24.0346 124.863 23.4578 124.34L30.9519 116.071ZM119.384 124.34C118.807 124.863 118.221 125.377 117.627 125.881L110.407 117.371C110.908 116.946 111.403 116.512 111.889 116.071L119.384 124.34ZM28.118 113.329C28.5749 113.801 29.0401 114.265 29.5125 114.723L21.7517 122.742C21.1918 122.2 20.6411 121.649 20.0994 121.089L28.118 113.329ZM122.742 121.089C122.2 121.649 121.65 122.2 121.09 122.742L113.328 114.723C113.8 114.265 114.266 113.801 114.722 113.329L122.742 121.089ZM25.4695 110.407C25.8948 110.908 26.3289 111.403 26.7703 111.89L18.5017 119.384C17.9785 118.807 17.4648 118.22 16.9607 117.626L25.4695 110.407ZM125.881 117.627C125.377 118.221 124.863 118.807 124.34 119.384L116.071 111.89C116.512 111.403 116.946 110.908 117.371 110.407L125.881 117.627ZM23.0183 107.318C23.41 107.846 23.81 108.368 24.2185 108.883L15.4783 115.82C14.9941 115.21 14.5196 114.592 14.0555 113.966L23.0183 107.318ZM128.786 113.966C128.322 114.592 127.847 115.21 127.363 115.82L118.622 108.883C119.03 108.368 119.43 107.846 119.822 107.318L128.786 113.966ZM20.7742 104.075C21.1306 104.628 21.496 105.175 21.8699 105.715L12.6941 112.066C12.251 111.426 11.8177 110.778 11.3953 110.123L20.7742 104.075ZM131.445 110.123C131.023 110.778 130.59 111.426 130.147 112.066L120.971 105.715C121.345 105.175 121.71 104.628 122.066 104.075L131.445 110.123ZM18.7469 100.693C19.0664 101.268 19.3955 101.838 19.7332 102.401L10.1609 108.138C9.76085 107.47 9.37158 106.796 8.99296 106.114L18.7469 100.693ZM133.848 106.114C133.47 106.796 133.08 107.47 132.679 108.138L123.108 102.401C123.446 101.838 123.774 101.268 124.094 100.693L133.848 106.114ZM16.9451 97.1855C17.2264 97.7803 17.5172 98.3701 17.8172 98.9541L7.89042 104.053C7.53493 103.361 7.19059 102.662 6.85721 101.957L16.9451 97.1855ZM135.983 101.957C135.65 102.662 135.305 103.361 134.95 104.053L125.023 98.9541C125.323 98.3701 125.614 97.7804 125.895 97.1855L135.983 101.957ZM15.7469 94.4814C15.8727 94.7854 16.001 95.0882 16.1316 95.3896L5.89237 99.8281C5.73753 99.471 5.58548 99.1121 5.43631 98.752C5.28717 98.3919 5.14088 98.0309 4.99784 97.6689L15.3767 93.5674C15.4975 93.8729 15.621 94.1775 15.7469 94.4814ZM137.843 97.6689C137.7 98.0309 137.553 98.3919 137.404 98.752C137.255 99.1121 137.103 99.4709 136.948 99.8281L126.71 95.3896C126.84 95.0882 126.969 94.7854 127.095 94.4814C127.22 94.1776 127.344 93.8729 127.465 93.5674L137.843 97.6689ZM14.0486 89.8545C14.2495 90.4796 14.4607 91.1022 14.6824 91.7217L4.1746 95.4814C3.91187 94.7472 3.66167 94.0094 3.42362 93.2686L14.0486 89.8545ZM139.417 93.2686C139.179 94.0094 138.929 94.7473 138.666 95.4814L128.159 91.7217C128.381 91.1021 128.592 90.4796 128.793 89.8545L139.417 93.2686ZM12.9656 86.0625C13.1252 86.6996 13.2947 87.3352 13.4754 87.9678L2.74491 91.0312C2.53088 90.2817 2.32951 89.5293 2.14042 88.7744L12.9656 86.0625ZM140.7 88.7744C140.511 89.5293 140.31 90.2817 140.095 91.0312L129.365 87.9678C129.546 87.3352 129.716 86.6996 129.876 86.0625L140.7 88.7744ZM12.1326 82.208C12.2502 82.8544 12.3785 83.4997 12.5174 84.1426L1.61014 86.498C1.4456 85.7362 1.29347 84.9721 1.15409 84.2061L12.1326 82.208ZM141.687 84.2061C141.548 84.9721 141.396 85.7362 141.231 86.498L130.323 84.1426C130.462 83.4997 130.59 82.8544 130.708 82.208L141.687 84.2061ZM11.5545 78.3076C11.6296 78.9605 11.7149 79.6123 11.8113 80.2627L0.773228 81.9004C0.658894 81.1296 0.557549 80.3568 0.468541 79.583L11.5545 78.3076ZM142.373 79.583C142.284 80.3568 142.182 81.1295 142.068 81.9004L131.029 80.2627C131.126 79.6123 131.212 78.9605 131.287 78.3076L142.373 79.583ZM11.2322 74.3779C11.2645 75.0344 11.3074 75.6907 11.3611 76.3457L0.239048 77.2568C0.175396 76.4805 0.123953 75.7028 0.0857282 74.9248L11.2322 74.3779ZM142.755 74.9248C142.716 75.7028 142.666 76.4805 142.602 77.2568L131.479 76.3457C131.533 75.6907 131.577 75.0344 131.609 74.3779L142.755 74.9248ZM11.1678 70.4346C11.157 71.0919 11.157 71.7492 11.1678 72.4062L0.00955631 72.5889C-0.00318744 71.8102 -0.00318343 71.031 0.00955631 70.252L11.1678 70.4346ZM142.831 70.252C142.844 71.031 142.844 71.8102 142.831 72.5889L131.674 72.4062C131.684 71.7493 131.684 71.0919 131.674 70.4346L142.831 70.252ZM11.3611 66.4961C11.3074 67.1516 11.2644 67.8076 11.2322 68.4639L0.0857282 67.916C0.123925 67.1384 0.175363 66.3608 0.239048 65.584L11.3611 66.4961ZM142.602 65.584C142.666 66.3608 142.716 67.1384 142.755 67.916L131.609 68.4639C131.577 67.8077 131.534 67.1516 131.48 66.4961L142.602 65.584ZM11.8113 62.5791C11.7148 63.2295 11.6295 63.881 11.5545 64.5332L0.467564 63.2588C0.556524 62.4855 0.658828 61.7126 0.773228 60.9414L11.8113 62.5791ZM142.068 60.9414C142.183 61.7126 142.284 62.4855 142.373 63.2588L131.287 64.5332C131.212 63.881 131.126 63.2296 131.029 62.5791L142.068 60.9414ZM12.5174 58.6992C12.3785 59.3423 12.2501 59.9869 12.1326 60.6328L1.15409 58.6348C1.29339 57.8693 1.44553 57.1049 1.61014 56.3428L12.5174 58.6992ZM141.231 56.3428C141.396 57.1049 141.548 57.8693 141.687 58.6348L130.708 60.6328C130.59 59.9869 130.462 59.3423 130.323 58.6992L141.231 56.3428ZM13.4764 54.873C13.3861 55.1889 13.2978 55.5065 13.2127 55.8242C13.1276 56.1418 13.0454 56.4599 12.9656 56.7783L2.14042 54.0674C2.23502 53.6897 2.33248 53.3121 2.43338 52.9355C2.53427 52.5591 2.639 52.1839 2.74588 51.8096L13.4764 54.873ZM140.407 52.9355C140.508 53.3121 140.605 53.6897 140.7 54.0674L129.876 56.7783C129.796 56.4598 129.713 56.1419 129.628 55.8242C129.543 55.5065 129.455 55.1889 129.365 54.873L140.095 51.8096C140.202 52.1838 140.306 52.5591 140.407 52.9355ZM14.6824 51.1191C14.4612 51.7373 14.2499 52.3599 14.0486 52.9863L3.42362 49.5732C3.66211 48.8309 3.91251 48.0929 4.1746 47.3604L14.6824 51.1191ZM138.666 47.3604C138.928 48.0929 139.178 48.8309 139.417 49.5732L128.793 52.9863C128.591 52.3599 128.38 51.7373 128.159 51.1191L138.666 47.3604ZM16.1316 47.4521C15.8704 48.0547 15.6185 48.6617 15.3767 49.2734L4.99881 45.1729C5.28529 44.4479 5.58282 43.7277 5.89237 43.0137L16.1316 47.4521ZM136.948 43.0137C137.258 43.7278 137.556 44.4478 137.843 45.1729L127.464 49.2734C127.222 48.6618 126.971 48.0546 126.71 47.4521L136.948 43.0137ZM17.8172 43.8867C17.517 44.471 17.2263 45.0608 16.9451 45.6553L6.85721 40.8848C7.1905 40.1801 7.5356 39.4807 7.89139 38.7881L17.8172 43.8867ZM134.95 38.7881C135.306 39.4807 135.65 40.1801 135.983 40.8848L125.895 45.6553C125.614 45.0609 125.323 44.471 125.023 43.8867L134.95 38.7881ZM19.7332 40.4404C19.3953 41.0041 19.0663 41.5737 18.7469 42.1484L8.99296 36.7275C9.3715 36.0464 9.7605 35.3712 10.1609 34.7031L19.7332 40.4404ZM132.679 34.7031C133.08 35.3712 133.47 36.0464 133.848 36.7275L124.094 42.1484C123.774 41.5737 123.446 41.0041 123.108 40.4404L132.679 34.7031ZM21.8699 37.126C21.4958 37.6665 21.1304 38.2132 20.7742 38.7656L11.3953 32.7188C11.8175 32.064 12.2508 31.416 12.6941 30.7754L21.8699 37.126ZM130.147 30.7754C130.591 31.416 131.023 32.064 131.445 32.7188L122.066 38.7656C121.71 38.2133 121.345 37.6664 120.971 37.126L130.147 30.7754ZM24.2185 33.959C23.8099 34.4739 23.4098 34.9957 23.0183 35.5234L14.0555 28.876C14.5194 28.2504 14.9939 27.6319 15.4783 27.0215L24.2185 33.959ZM127.363 27.0215C127.848 27.6319 128.322 28.2504 128.786 28.876L119.822 35.5234C119.431 34.9956 119.031 34.474 118.622 33.959L127.363 27.0215ZM26.7703 30.9521C26.3286 31.4395 25.8946 31.9336 25.4695 32.4346L16.9607 25.2148C17.4644 24.6211 17.9783 24.0355 18.5017 23.458L26.7703 30.9521ZM124.34 23.458C124.863 24.0355 125.377 24.6211 125.881 25.2148L117.371 32.4346C116.946 31.9337 116.513 31.4394 116.071 30.9521L124.34 23.458ZM29.5125 28.1182C29.0398 28.5757 28.5747 29.0407 28.118 29.5127L20.0994 21.752C20.6407 21.1926 21.1915 20.6418 21.7517 20.0996L29.5125 28.1182ZM121.09 20.0996C121.65 20.6418 122.201 21.1927 122.742 21.752L114.722 29.5127C114.266 29.0408 113.802 28.5756 113.329 28.1182L121.09 20.0996ZM32.4344 25.4707C31.9326 25.8964 31.4384 26.3296 30.9519 26.7705L23.4578 18.502C24.0344 17.9794 24.62 17.4655 25.2146 16.9609L32.4344 25.4707ZM117.627 16.9609C118.221 17.4654 118.807 17.9794 119.384 18.502L111.889 26.7705C111.403 26.3297 110.909 25.8963 110.407 25.4707L117.627 16.9609ZM35.5232 23.0186C35.2594 23.2142 34.997 23.4121 34.7361 23.6123C34.4751 23.8126 34.2161 24.0155 33.9588 24.2197L27.0213 15.4785C27.3262 15.2365 27.6329 14.9961 27.9422 14.7588C28.2514 14.5215 28.5631 14.2876 28.8758 14.0557L35.5232 23.0186ZM114.898 14.7588C115.208 14.9961 115.515 15.2365 115.82 15.4785L108.883 24.2197C108.625 24.0155 108.366 23.8125 108.105 23.6123C107.844 23.412 107.581 23.2143 107.317 23.0186L113.966 14.0557C114.278 14.2874 114.589 14.5216 114.898 14.7588ZM38.7654 20.7744C38.2137 21.1302 37.6668 21.4957 37.1258 21.8701L30.7752 12.6943C31.4164 12.2505 32.0645 11.8172 32.7185 11.3955L38.7654 20.7744ZM110.123 11.3955C110.777 11.8172 111.424 12.2506 112.065 12.6943L105.715 21.8701C105.174 21.4956 104.627 21.1302 104.075 20.7744L110.123 11.3955ZM42.1482 18.7471C41.5741 19.0661 41.0045 19.3952 40.4402 19.7334L34.7029 10.1611C35.3717 9.76029 36.0469 9.3713 36.7273 8.99316L42.1482 18.7471ZM106.114 8.99316C106.794 9.37119 107.469 9.76042 108.137 10.1611L102.4 19.7334C101.836 19.3953 101.267 19.0661 100.693 18.7471L106.114 8.99316ZM45.656 16.9453C45.0623 17.2261 44.4724 17.517 43.8875 17.8174L38.7879 7.89062C39.4813 7.53447 40.1806 7.19035 40.8846 6.85742L45.656 16.9453ZM101.957 6.85742C102.661 7.19026 103.359 7.53456 104.053 7.89062L98.9539 17.8174C98.3689 17.5169 97.7793 17.2262 97.1853 16.9453L101.957 6.85742ZM49.2732 15.377C48.6622 15.6184 48.0551 15.8704 47.4519 16.1318L43.0135 5.89258C43.7284 5.58267 44.4484 5.28425 45.1726 4.99805L49.2732 15.377ZM97.6687 4.99805C98.3931 5.28429 99.1129 5.58263 99.8279 5.89258L95.3894 16.1318C94.7861 15.8703 94.1784 15.6185 93.5672 15.377L97.6687 4.99805ZM52.9861 14.0488C52.3604 14.2499 51.7377 14.4612 51.1189 14.6826L47.3601 4.17578C48.0936 3.91335 48.8314 3.66213 49.573 3.42383L52.9861 14.0488ZM93.2683 3.42383C94.01 3.66214 94.7477 3.91333 95.4812 4.17578L91.7215 14.6826C91.1026 14.4612 90.4801 14.2499 89.8543 14.0488L93.2683 3.42383ZM56.7781 12.9658C56.1404 13.1256 55.5056 13.2961 54.8738 13.4766L51.8094 2.74609C52.5582 2.53226 53.3104 2.32995 54.0662 2.14062L56.7781 12.9658ZM88.7742 2.14062C89.5302 2.32999 90.2831 2.53221 91.032 2.74609L87.9676 13.4766C87.3356 13.2961 86.7001 13.1256 86.0623 12.9658L88.7742 2.14062ZM60.6326 12.1328C59.9857 12.2505 59.3411 12.3789 58.699 12.5176L56.3426 1.61035C57.1036 1.44598 57.8678 1.29383 58.6346 1.1543L60.6326 12.1328ZM84.2058 1.1543C84.9726 1.29383 85.7368 1.44598 86.4978 1.61035L84.1424 12.5176C83.5002 12.3789 82.8549 12.2506 82.2078 12.1328L84.2058 1.1543ZM64.533 11.5547C63.8795 11.6299 63.2275 11.7152 62.5779 11.8115L60.9412 0.773438C61.711 0.659244 62.4832 0.55686 63.2576 0.467773L64.533 11.5547ZM79.5828 0.467773C80.3574 0.55688 81.1302 0.659212 81.9002 0.773438L80.2625 11.8115C79.6129 11.7152 78.9609 11.6299 78.3074 11.5547L79.5828 0.467773ZM68.4637 11.2324C67.8065 11.2647 67.1502 11.3077 66.4959 11.3613L65.5838 0.239258C66.3594 0.175674 67.1369 0.124193 67.9158 0.0859375L68.4637 11.2324ZM74.9246 0.0859375C75.7034 0.124189 76.4811 0.175685 77.2566 0.239258L76.3455 11.3613C75.6912 11.3077 75.0349 11.2647 74.3777 11.2324L74.9246 0.0859375ZM72.5896 0.00976562L72.407 11.168C72.0786 11.1626 71.7496 11.1602 71.4207 11.1602C71.0918 11.1602 70.7628 11.1626 70.4344 11.168L70.2517 0.00976562C70.641 0.00339806 71.0308 -4.64884e-09 71.4207 0C71.8105 1.3315e-06 72.2004 0.00339925 72.5896 0.00976562Z" fill="#2A2A2A"/>
</svg>
